<svg width="24" height="24" viewBox="0 0 24 24" fill="none" xmlns="http://www.w3.org/2000/svg">
<path d="M9.66667 0.333252H1.5C0.800003 0.333252 0.333336 0.799919 0.333336 1.49992V9.66659C0.333336 10.3666 0.800003 10.8333 1.5 10.8333H9.66667C10.3667 10.8333 10.8333 10.3666 10.8333 9.66659V1.49992C10.8333 0.799919 10.3667 0.333252 9.66667 0.333252ZM9.66667 13.1666H1.5C0.800003 13.1666 0.333336 13.6333 0.333336 14.3333V22.4999C0.333336 23.1999 0.800003 23.6666 1.5 23.6666H9.66667C10.3667 23.6666 10.8333 23.1999 10.8333 22.4999V14.3333C10.8333 13.6333 10.3667 13.1666 9.66667 13.1666ZM22.5 0.333252H14.3333C13.6333 0.333252 13.1667 0.799919 13.1667 1.49992V9.66659C13.1667 10.3666 13.6333 10.8333 14.3333 10.8333H22.5C23.2 10.8333 23.6667 10.3666 23.6667 9.66659V1.49992C23.6667 0.799919 23.2 0.333252 22.5 0.333252ZM22.5 13.1666H14.3333C13.6333 13.1666 13.1667 13.6333 13.1667 14.3333V22.4999C13.1667 23.1999 13.6333 23.6666 14.3333 23.6666H22.5C23.2 23.6666 23.6667 23.1999 23.6667 22.4999V14.3333C23.6667 13.6333 23.2 13.1666 22.5 13.1666Z" fill="#77757F"/>
</svg>
