<svg width="24" height="20" viewBox="0 0 24 20" fill="none" xmlns="http://www.w3.org/2000/svg">
<path d="M22.9375 1.25H6.96875C6.84844 1.25 6.75 1.34844 6.75 1.46875V3C6.75 3.12031 6.84844 3.21875 6.96875 3.21875H22.9375C23.0578 3.21875 23.1562 3.12031 23.1562 3V1.46875C23.1562 1.34844 23.0578 1.25 22.9375 1.25ZM22.9375 9.01562H6.96875C6.84844 9.01562 6.75 9.11406 6.75 9.23438V10.7656C6.75 10.8859 6.84844 10.9844 6.96875 10.9844H22.9375C23.0578 10.9844 23.1562 10.8859 23.1562 10.7656V9.23438C23.1562 9.11406 23.0578 9.01562 22.9375 9.01562ZM22.9375 16.7812H6.96875C6.84844 16.7812 6.75 16.8797 6.75 17V18.5312C6.75 18.6516 6.84844 18.75 6.96875 18.75H22.9375C23.0578 18.75 23.1562 18.6516 23.1562 18.5312V17C23.1562 16.8797 23.0578 16.7812 22.9375 16.7812ZM0.84375 2.23438C0.84375 2.43546 0.883357 2.63458 0.96031 2.82036C1.03726 3.00614 1.15005 3.17494 1.29224 3.31713C1.43443 3.45932 1.60324 3.57211 1.78902 3.64907C1.9748 3.72602 2.17391 3.76562 2.375 3.76562C2.57609 3.76562 2.7752 3.72602 2.96098 3.64907C3.14676 3.57211 3.31557 3.45932 3.45776 3.31713C3.59995 3.17494 3.71274 3.00614 3.78969 2.82036C3.86664 2.63458 3.90625 2.43546 3.90625 2.23438C3.90625 2.03329 3.86664 1.83417 3.78969 1.64839C3.71274 1.46261 3.59995 1.29381 3.45776 1.15162C3.31557 1.00943 3.14676 0.896637 2.96098 0.819684C2.7752 0.742732 2.57609 0.703125 2.375 0.703125C2.17391 0.703125 1.9748 0.742732 1.78902 0.819684C1.60324 0.896637 1.43443 1.00943 1.29224 1.15162C1.15005 1.29381 1.03726 1.46261 0.96031 1.64839C0.883357 1.83417 0.84375 2.03329 0.84375 2.23438ZM0.84375 10C0.84375 10.2011 0.883357 10.4002 0.96031 10.586C1.03726 10.7718 1.15005 10.9406 1.29224 11.0828C1.43443 11.2249 1.60324 11.3377 1.78902 11.4147C1.9748 11.4916 2.17391 11.5312 2.375 11.5312C2.57609 11.5312 2.7752 11.4916 2.96098 11.4147C3.14676 11.3377 3.31557 11.2249 3.45776 11.0828C3.59995 10.9406 3.71274 10.7718 3.78969 10.586C3.86664 10.4002 3.90625 10.2011 3.90625 10C3.90625 9.79891 3.86664 9.5998 3.78969 9.41402C3.71274 9.22824 3.59995 9.05943 3.45776 8.91724C3.31557 8.77505 3.14676 8.66226 2.96098 8.58531C2.7752 8.50836 2.57609 8.46875 2.375 8.46875C2.17391 8.46875 1.9748 8.50836 1.78902 8.58531C1.60324 8.66226 1.43443 8.77505 1.29224 8.91724C1.15005 9.05943 1.03726 9.22824 0.96031 9.41402C0.883357 9.5998 0.84375 9.79891 0.84375 10ZM0.84375 17.7656C0.84375 17.9667 0.883357 18.1658 0.96031 18.3516C1.03726 18.5374 1.15005 18.7062 1.29224 18.8484C1.43443 18.9906 1.60324 19.1034 1.78902 19.1803C1.9748 19.2573 2.17391 19.2969 2.375 19.2969C2.57609 19.2969 2.7752 19.2573 2.96098 19.1803C3.14676 19.1034 3.31557 18.9906 3.45776 18.8484C3.59995 18.7062 3.71274 18.5374 3.78969 18.3516C3.86664 18.1658 3.90625 17.9667 3.90625 17.7656C3.90625 17.5645 3.86664 17.3654 3.78969 17.1796C3.71274 16.9939 3.59995 16.8251 3.45776 16.6829C3.31557 16.5407 3.14676 16.4279 2.96098 16.3509C2.7752 16.274 2.57609 16.2344 2.375 16.2344C2.17391 16.2344 1.9748 16.274 1.78902 16.3509C1.60324 16.4279 1.43443 16.5407 1.29224 16.6829C1.15005 16.8251 1.03726 16.9939 0.96031 17.1796C0.883357 17.3654 0.84375 17.5645 0.84375 17.7656Z" fill="white"/>
</svg>
