<svg width="58" height="58" viewBox="0 0 58 58" fill="none" xmlns="http://www.w3.org/2000/svg">
<path d="M57.7976 24.755C57.5642 23.722 56.9196 22.7676 56.1842 22.3668C55.9507 22.2367 54.5046 22.0838 52.9552 22.0177C50.3604 21.902 50.0753 21.8503 49.249 21.3711C47.9454 20.6087 47.5962 19.7824 47.5839 17.5615C47.5715 13.2996 45.801 9.33722 42.3034 5.77355C39.812 3.23043 37.023 1.51161 33.8456 0.544768C33.0833 0.311321 31.379 0.234883 25.673 0.17084C16.7111 0.0675457 14.7237 0.247279 11.6765 1.46203C6.05935 3.68286 2.03086 8.40963 0.559942 14.4503C0.28931 15.5866 0.223201 17.4066 0.159158 27.8662C0.08272 40.9723 0.171554 42.8956 0.985516 45.4904C2.99976 51.8947 8.72023 56.6338 14.4655 57.6668C16.3764 58.0159 39.94 58.0924 42.3551 57.7701C46.5509 57.2019 49.8439 55.51 52.9304 52.3595C55.1636 50.0746 56.5581 47.6079 57.4754 44.3417C58.1075 42.0693 58.0559 25.9036 57.7976 24.755ZM16.207 16.5431C17.2152 15.5225 17.4982 15.4833 23.7992 15.4833C29.468 15.4833 29.6601 15.4957 30.4886 15.9233C31.6889 16.5307 32.2177 17.3818 32.2177 18.7515C32.2177 19.9786 31.726 20.8422 30.629 21.5405C30.0361 21.9144 29.687 21.9412 24.1339 21.966C20.7128 21.9908 17.9754 21.9144 17.5747 21.8111C15.4303 21.2037 14.6308 18.1317 16.205 16.5431H16.207ZM40.973 42.3399L39.0496 42.6498L29.0424 42.7655C20.25 42.8688 17.7709 42.7138 17.3061 42.5072C16.3888 42.1064 15.5232 40.9971 15.3827 40.0034C15.2402 39.0613 15.7174 37.7701 16.4405 37.1111C17.3577 36.2848 17.7565 36.26 29.0032 36.2455C40.5722 36.2331 40.5082 36.2331 41.6052 37.2537C43.167 38.7122 42.8323 41.2822 40.973 42.3399Z" fill="#5352ED"/>
</svg>
